<svg width="317" height="221" viewBox="0 0 317 221" fill="none" xmlns="http://www.w3.org/2000/svg">
<path d="M316.083 104.609C316.521 108.338 314.177 111.791 310.521 112.797C307.516 113.625 304.25 113.833 301.167 114.281C298.037 114.734 294.906 115.193 291.776 115.646C285.146 116.609 278.464 117.245 271.802 117.974C259.375 119.333 246.932 120.963 234.464 121.875C227.401 122.39 220.443 123.437 213.427 124.427C211.708 124.672 209.979 123.927 209.516 122.114C209.104 120.51 210.115 118.521 211.833 118.198C218.016 117.036 224.266 116.057 230.354 114.479C236.557 112.864 242.781 111.443 249.031 110.047C255.172 108.677 261.313 107.302 267.458 105.937C273.698 104.557 279.932 102.995 286.219 101.833C289.641 101.203 293.057 100.573 296.479 99.9425C300.537 99.1925 304.656 98.1717 308.781 97.9269C312.526 97.7081 315.672 101.151 316.083 104.609Z" fill="#003B5C"/>
<path d="M244.432 20.4791C245.203 23.5 243.927 25.9218 242.083 28.151C240.422 30.1614 238.677 32.0989 236.974 34.0729C230.317 41.776 223.88 49.7604 216.911 57.1927C213.062 61.302 209.208 65.4114 205.359 69.5208C201.474 73.6614 197.651 78.375 192.932 81.5625C191.437 82.5729 189.156 82.1093 187.942 80.8802C186.541 79.4687 186.573 77.5729 187.323 75.8645C188.38 73.4583 189.916 71.4583 191.442 69.3229C192.942 67.2187 194.458 65.1197 195.994 63.0364C198.942 59.0468 201.89 55.052 204.843 51.0572C211 42.7187 217.682 34.7552 224.172 26.6718C225.672 24.802 227.177 22.9375 228.677 21.0677C231.416 17.651 234.13 13.7812 239.271 15.177C241.859 15.8802 243.765 17.8906 244.432 20.4791Z" fill="#003B5C"/>
<path d="M274.74 146.667C274.688 149.729 272.188 152.177 269.318 152.802C267.281 153.245 265.167 153.099 263.104 153.021C259.88 152.891 256.651 152.766 253.422 152.641C249.979 152.505 246.537 152.375 243.094 152.229C239.537 152.078 236.016 152.073 232.526 151.302C228.984 150.521 229.521 145.542 232.62 144.604C235.87 143.615 239.292 143.427 242.656 143.026C246.313 142.594 249.964 142.177 253.62 141.755C256.854 141.38 260.089 141.005 263.328 140.63C265.396 140.391 267.412 140.073 269.484 140.547C272.271 141.182 274.792 143.625 274.74 146.667Z" fill="#003B5C"/>
<path d="M255.385 65.2134C257.24 68.8228 255.974 72.3593 252.828 74.6197C247.641 78.3489 242.281 81.8697 236.854 85.2499C234.146 86.9322 231.474 88.4374 228.542 89.677C225.49 90.9634 222.302 91.9739 219.177 93.0832C218.052 93.4843 216.661 92.7655 216.099 91.7864C215.453 90.6509 215.771 89.4114 216.552 88.4582C218.589 85.9634 220.557 83.3541 222.729 80.9843C224.844 78.677 227.229 76.703 229.708 74.7812C235.057 70.6405 240.411 66.4999 245.979 62.6562C248.953 60.6041 253.781 62.0937 255.385 65.2134Z" fill="#003B5C"/>
<path d="M289.859 191.333C288.859 194.349 286.37 196.015 283.26 196.224C276.24 196.693 269.26 194.328 262.516 192.62C256.099 190.995 249.662 189.432 243.287 187.646C230.646 184.104 217.943 180.75 205.359 177.01C201.74 175.937 197.849 175.047 194.38 173.552C190.922 172.062 187.594 170.094 184.354 168.172C181.464 166.458 182.943 162.344 186.047 162.193C189.224 162.031 192.401 161.984 195.578 162.015C199.177 162.057 202.891 163.12 206.422 163.791C212.943 165.026 219.412 166.51 225.896 167.901C238.76 170.666 251.609 173.432 264.401 176.521C271.979 178.349 280.094 179.547 286.813 183.687C289.266 185.203 290.807 188.484 289.859 191.333Z" fill="#003B5C"/>
<mask id="mask0_73_587" style="mask-type:luminance" maskUnits="userSpaceOnUse" x="0" y="0" width="176" height="221">
<path d="M0 0H175.896V221H0V0Z" fill="white"/>
</mask>
<g mask="url(#mask0_73_587)">
<path fill-rule="evenodd" clip-rule="evenodd" d="M175.964 204.365C175.042 80.1355 174.583 18.0209 174.583 18.0209C170.802 13.1147 167.229 10.5209 163.891 10.2605C98.3229 3.46883 65.5417 0.072998 65.5417 0.072998C25.6198 13.5313 5.66147 20.2657 5.66147 20.2657C1.46355 20.9115 -0.203116 23.0938 0.65626 26.8178C0.541676 142.193 0.484385 199.886 0.484385 199.886C0.364594 207.104 2.89064 210.844 8.07814 211.099C46.8438 217.656 66.224 220.932 66.224 220.932C66.224 220.932 100.844 218.865 170.094 214.719C174.214 214.094 176.167 210.646 175.964 204.365ZM42.849 124.927H51.0677C52.5156 124.927 53.7031 123.74 53.7031 122.292V33.2657C53.7031 31.8126 52.5156 30.6251 51.0677 30.6251H42.849C41.3958 30.6251 40.2083 31.8126 40.2083 33.2657V122.292C40.2083 123.74 41.3958 124.927 42.849 124.927Z" fill="#5A3D2B"/>
</g>
<path fill-rule="evenodd" clip-rule="evenodd" d="M171.489 195.766C170.646 81.5938 170.224 24.5052 170.224 24.5052C166.755 20 163.469 17.6146 160.396 17.3802C100.135 11.1354 70.0103 8.01562 70.0103 8.01562C70.4269 143.333 70.6405 210.99 70.6405 210.99C70.6405 210.99 102.458 209.089 166.099 205.281C169.88 204.703 171.682 201.536 171.489 195.766Z" fill="#B8DDE1"/>
<path fill-rule="evenodd" clip-rule="evenodd" d="M120.63 27.8958C102.208 27.8958 87.271 45.0728 87.271 66.2551C87.271 87.4374 102.208 104.609 120.63 104.609C139.052 104.609 153.99 87.4374 153.99 66.2551C153.99 45.0728 139.052 27.8958 120.63 27.8958Z" fill="#5A3D2B"/>
<path fill-rule="evenodd" clip-rule="evenodd" d="M120.63 37.9583C107.037 37.9583 96.021 50.6249 96.021 66.2551C96.021 81.8801 107.037 94.552 120.63 94.552C134.224 94.552 145.24 81.8801 145.24 66.2551C145.24 50.6249 134.224 37.9583 120.63 37.9583Z" fill="#FFE28A"/>
<path fill-rule="evenodd" clip-rule="evenodd" d="M120.63 53.1094C114.318 53.1094 109.198 58.9948 109.198 66.2552C109.198 73.5156 114.318 79.3958 120.63 79.3958C126.943 79.3958 132.062 73.5156 132.062 66.2552C132.062 58.9948 126.943 53.1094 120.63 53.1094Z" fill="#E5771E"/>
<path fill-rule="evenodd" clip-rule="evenodd" d="M120.63 119.49C102.208 119.49 87.271 136.667 87.271 157.849C87.271 179.031 102.208 196.203 120.63 196.203C139.052 196.203 153.99 179.031 153.99 157.849C153.99 136.667 139.052 119.49 120.63 119.49Z" fill="#5A3D2B"/>
<path fill-rule="evenodd" clip-rule="evenodd" d="M120.63 129.552C107.037 129.552 96.021 142.224 96.021 157.849C96.021 173.479 107.037 186.146 120.63 186.146C134.224 186.146 145.24 173.479 145.24 157.849C145.24 142.224 134.224 129.552 120.63 129.552Z" fill="#FFE28A"/>
<path fill-rule="evenodd" clip-rule="evenodd" d="M120.63 144.703C114.318 144.703 109.198 150.589 109.198 157.849C109.198 165.109 114.318 170.99 120.63 170.99C126.943 170.99 132.062 165.109 132.062 157.849C132.062 150.589 126.943 144.703 120.63 144.703Z" fill="#E5771E"/>
<mask id="mask1_73_587" style="mask-type:luminance" maskUnits="userSpaceOnUse" x="0" y="0" width="67" height="221">
<path d="M0 0H66.6667V221H0V0Z" fill="white"/>
</mask>
<g mask="url(#mask1_73_587)">
<path fill-rule="evenodd" clip-rule="evenodd" d="M0.484385 199.886C0.484385 199.886 0.541676 142.193 0.65626 26.8178C-0.203116 23.0938 1.46355 20.9115 5.66147 20.2657C5.66147 20.2657 25.6198 13.5313 65.5417 0.072998C65.9948 147.313 66.224 220.932 66.224 220.932C66.224 220.932 46.8438 217.656 8.07814 211.099C2.89064 210.844 0.364594 207.104 0.484385 199.886Z" fill="#E5771E"/>
</g>
</svg>
