<svg width="176" height="221" viewBox="0 0 176 221" fill="none" xmlns="http://www.w3.org/2000/svg">
<mask id="mask0_88_4919" style="mask-type:luminance" maskUnits="userSpaceOnUse" x="0" y="0" width="176" height="221">
<path d="M0 0H175.896V221H0V0Z" fill="white"/>
</mask>
<g mask="url(#mask0_88_4919)">
<path fill-rule="evenodd" clip-rule="evenodd" d="M175.964 204.365C175.042 80.1355 174.583 18.0209 174.583 18.0209C170.802 13.1147 167.229 10.5209 163.891 10.2605C98.3229 3.46883 65.5417 0.072998 65.5417 0.072998C25.6198 13.5313 5.66147 20.2657 5.66147 20.2657C1.46355 20.9115 -0.203116 23.0938 0.65626 26.8178C0.541676 142.193 0.484385 199.885 0.484385 199.885C0.364594 207.104 2.89064 210.844 8.07814 211.099C46.8438 217.656 66.224 220.932 66.224 220.932C66.224 220.932 100.844 218.865 170.094 214.719C174.214 214.094 176.167 210.646 175.964 204.365ZM42.849 124.927H51.0677C52.5156 124.927 53.7031 123.74 53.7031 122.292V33.2657C53.7031 31.8126 52.5156 30.6251 51.0677 30.6251H42.849C41.3958 30.6251 40.2083 31.8126 40.2083 33.2657V122.292C40.2083 123.74 41.3958 124.927 42.849 124.927Z" fill="#5A3D2B"/>
</g>
<path fill-rule="evenodd" clip-rule="evenodd" d="M171.489 195.766C170.646 81.5938 170.224 24.5052 170.224 24.5052C166.755 20 163.469 17.6146 160.396 17.3802C100.135 11.1354 70.0103 8.01562 70.0103 8.01562C70.4269 143.333 70.6405 210.99 70.6405 210.99C70.6405 210.99 102.458 209.089 166.099 205.281C169.88 204.703 171.682 201.536 171.489 195.766Z" fill="#B8DDE1"/>
<path fill-rule="evenodd" clip-rule="evenodd" d="M120.63 27.8958C102.208 27.8958 87.271 45.0728 87.271 66.2551C87.271 87.4374 102.208 104.609 120.63 104.609C139.052 104.609 153.99 87.4374 153.99 66.2551C153.99 45.0728 139.052 27.8958 120.63 27.8958Z" fill="#5A3D2B"/>
<path fill-rule="evenodd" clip-rule="evenodd" d="M120.63 37.9583C107.037 37.9583 96.021 50.6249 96.021 66.2551C96.021 81.8801 107.037 94.552 120.63 94.552C134.224 94.552 145.24 81.8801 145.24 66.2551C145.24 50.6249 134.224 37.9583 120.63 37.9583Z" fill="#FFE28A"/>
<path fill-rule="evenodd" clip-rule="evenodd" d="M120.63 53.1094C114.318 53.1094 109.198 58.9948 109.198 66.2552C109.198 73.5156 114.318 79.3958 120.63 79.3958C126.943 79.3958 132.062 73.5156 132.062 66.2552C132.062 58.9948 126.943 53.1094 120.63 53.1094Z" fill="#E5771E"/>
<path fill-rule="evenodd" clip-rule="evenodd" d="M120.63 119.49C102.208 119.49 87.271 136.667 87.271 157.849C87.271 179.031 102.208 196.203 120.63 196.203C139.052 196.203 153.99 179.031 153.99 157.849C153.99 136.667 139.052 119.49 120.63 119.49Z" fill="#5A3D2B"/>
<path fill-rule="evenodd" clip-rule="evenodd" d="M120.63 129.552C107.037 129.552 96.021 142.224 96.021 157.849C96.021 173.479 107.037 186.146 120.63 186.146C134.224 186.146 145.24 173.479 145.24 157.849C145.24 142.224 134.224 129.552 120.63 129.552Z" fill="#FFE28A"/>
<path fill-rule="evenodd" clip-rule="evenodd" d="M120.63 144.703C114.318 144.703 109.198 150.589 109.198 157.849C109.198 165.109 114.318 170.99 120.63 170.99C126.943 170.99 132.062 165.109 132.062 157.849C132.062 150.589 126.943 144.703 120.63 144.703Z" fill="#E5771E"/>
<mask id="mask1_88_4919" style="mask-type:luminance" maskUnits="userSpaceOnUse" x="0" y="0" width="67" height="221">
<path d="M0 0H66.6667V221H0V0Z" fill="white"/>
</mask>
<g mask="url(#mask1_88_4919)">
<path fill-rule="evenodd" clip-rule="evenodd" d="M0.484385 199.885C0.484385 199.885 0.541676 142.193 0.65626 26.8178C-0.203116 23.0938 1.46355 20.9115 5.66147 20.2657C5.66147 20.2657 25.6198 13.5313 65.5417 0.072998C65.9948 147.313 66.224 220.932 66.224 220.932C66.224 220.932 46.8438 217.656 8.07814 211.099C2.89064 210.844 0.364594 207.104 0.484385 199.885Z" fill="#E5771E"/>
</g>
</svg>
