<svg width="16" height="16" viewBox="0 0 16 16" fill="none" xmlns="http://www.w3.org/2000/svg">
<mask id="mask0_456_21" style="mask-type:luminance" maskUnits="userSpaceOnUse" x="1" y="0" width="13" height="16">
<path d="M1 0H14V16H1V0Z" fill="white"/>
</mask>
<g mask="url(#mask0_456_21)">
<path fill-rule="evenodd" clip-rule="evenodd" d="M14.0049 14.7957C13.9368 5.80175 13.9029 1.30477 13.9029 1.30477C13.6235 0.949564 13.3594 0.761781 13.1127 0.742928C8.26672 0.251223 5.84394 0.00537109 5.84394 0.00537109C2.89342 0.97973 1.41835 1.46729 1.41835 1.46729C1.1081 1.51404 0.984916 1.67204 1.04843 1.94165C1.03996 10.2946 1.03573 14.4714 1.03573 14.4714C1.02687 14.9941 1.21357 15.2648 1.59696 15.2833C4.46203 15.758 5.89437 15.9952 5.89437 15.9952C5.89437 15.9952 8.45303 15.8455 13.5711 15.5453C13.8756 15.5001 14.0199 15.2505 14.0049 14.7957ZM4.16678 9.04459H4.77421C4.88122 9.04459 4.96899 8.95861 4.96899 8.85379V2.40846C4.96899 2.30326 4.88122 2.21729 4.77421 2.21729H4.16678C4.05939 2.21729 3.97162 2.30326 3.97162 2.40846V8.85379C3.97162 8.95861 4.05939 9.04459 4.16678 9.04459Z" fill="#5A3D2B"/>
</g>
<path fill-rule="evenodd" clip-rule="evenodd" d="M13.6744 14.1731C13.612 5.90725 13.5808 1.77414 13.5808 1.77414C13.3245 1.44797 13.0816 1.27527 12.8545 1.2583C8.40078 0.80619 6.17432 0.580322 6.17432 0.580322C6.20511 10.3771 6.22089 15.2753 6.22089 15.2753C6.22089 15.2753 8.57246 15.1376 13.276 14.862C13.5554 14.8201 13.6886 14.5909 13.6744 14.1731Z" fill="#B8DDE1"/>
<path fill-rule="evenodd" clip-rule="evenodd" d="M9.91546 2.01953C8.55394 2.01953 7.44995 3.26312 7.44995 4.79668C7.44995 6.33024 8.55394 7.57345 9.91546 7.57345C11.277 7.57345 12.381 6.33024 12.381 4.79668C12.381 3.26312 11.277 2.01953 9.91546 2.01953Z" fill="#5A3D2B"/>
<path fill-rule="evenodd" clip-rule="evenodd" d="M9.91549 2.74805C8.91082 2.74805 8.09668 3.66509 8.09668 4.79669C8.09668 5.92791 8.91082 6.84533 9.91549 6.84533C10.9202 6.84533 11.7343 5.92791 11.7343 4.79669C11.7343 3.66509 10.9202 2.74805 9.91549 2.74805Z" fill="#FFE28A"/>
<path fill-rule="evenodd" clip-rule="evenodd" d="M9.91549 3.84497C9.44895 3.84497 9.07056 4.27106 9.07056 4.79671C9.07056 5.32235 9.44895 5.74806 9.91549 5.74806C10.382 5.74806 10.7604 5.32235 10.7604 4.79671C10.7604 4.27106 10.382 3.84497 9.91549 3.84497Z" fill="#E5771E"/>
<path fill-rule="evenodd" clip-rule="evenodd" d="M9.91546 8.65088C8.55394 8.65088 7.44995 9.89447 7.44995 11.428C7.44995 12.9616 8.55394 14.2048 9.91546 14.2048C11.277 14.2048 12.381 12.9616 12.381 11.428C12.381 9.89447 11.277 8.65088 9.91546 8.65088Z" fill="#5A3D2B"/>
<path fill-rule="evenodd" clip-rule="evenodd" d="M9.91549 9.37939C8.91082 9.37939 8.09668 10.2968 8.09668 11.428C8.09668 12.5596 8.91082 13.4767 9.91549 13.4767C10.9202 13.4767 11.7343 12.5596 11.7343 11.428C11.7343 10.2968 10.9202 9.37939 9.91549 9.37939Z" fill="#FFE28A"/>
<path fill-rule="evenodd" clip-rule="evenodd" d="M9.91549 10.4763C9.44895 10.4763 9.07056 10.9024 9.07056 11.4281C9.07056 11.9537 9.44895 12.3794 9.91549 12.3794C10.382 12.3794 10.7604 11.9537 10.7604 11.4281C10.7604 10.9024 10.382 10.4763 9.91549 10.4763Z" fill="#E5771E"/>
<mask id="mask1_456_21" style="mask-type:luminance" maskUnits="userSpaceOnUse" x="1" y="0" width="5" height="16">
<path d="M1 0H5.92716V16H1V0Z" fill="white"/>
</mask>
<g mask="url(#mask1_456_21)">
<path fill-rule="evenodd" clip-rule="evenodd" d="M1.03573 14.4714C1.03573 14.4714 1.03996 10.2946 1.04843 1.94165C0.984916 1.67204 1.1081 1.51404 1.41835 1.46729C1.41835 1.46729 2.89342 0.97973 5.84394 0.00537109C5.87743 10.6652 5.89437 15.9952 5.89437 15.9952C5.89437 15.9952 4.46203 15.758 1.59696 15.2833C1.21357 15.2648 1.02687 14.9941 1.03573 14.4714Z" fill="#E5771E"/>
</g>
</svg>
